<?xml version="1.0" encoding="UTF-8"?>
<svg version="1.1" xmlns="http://www.w3.org/2000/svg" width="500" height="500">
<path d="M0 0 C24.71304006 -0.25721353 49.42587888 -0.45106071 74.1399889 -0.56993389 C85.61583574 -0.62660167 97.09084985 -0.70382786 108.56616211 -0.82983398 C118.57069122 -0.93963741 128.57461716 -1.01047867 138.57973212 -1.03497344 C143.87543059 -1.0492877 149.16940388 -1.08280922 154.46454811 -1.16303062 C159.45471732 -1.23801511 164.4424607 -1.26066605 169.4331398 -1.24418449 C171.25890632 -1.24719685 173.08475865 -1.26889609 174.91003609 -1.31126022 C190.11185593 -1.64661506 190.11185593 -1.64661506 196.018933 3.81499499 C198.17805271 6.09093857 200.10202675 8.50425469 202 11 C203.24130145 12.42429462 204.48932243 13.84282677 205.75 15.25 C206.29011719 15.88035156 206.83023438 16.51070312 207.38671875 17.16015625 C211.06029218 21.34963103 214.98928255 25.23476251 219.3125 28.75 C222.28584782 31.23931445 223.88344029 32.74596944 224.24888897 36.67772102 C224.2483442 37.76505972 224.24779943 38.85239841 224.24723816 39.97268677 C224.25143265 41.2206604 224.25562714 42.46863403 224.25994873 43.75442505 C224.25446523 45.13983232 224.24878225 46.52523881 224.24291992 47.91064453 C224.24399268 49.36757492 224.24593127 50.8245049 224.24867249 52.28143311 C224.2535241 56.2399161 224.24586186 60.19828654 224.23571944 64.15675592 C224.22694686 68.29362012 224.22869621 72.4304807 224.2290802 76.56735229 C224.22814338 83.51285693 224.21945589 90.45831791 224.20581055 97.40380859 C224.19007248 105.44442948 224.18481285 113.48500257 224.1855461 121.52563775 C224.18615548 129.25009904 224.18105909 136.97454471 224.17275429 144.69900131 C224.16921541 147.9916585 224.16739018 151.28431015 224.16686058 154.57696915 C224.16585935 158.4494503 224.15978084 162.321891 224.14969444 166.19435883 C224.14676276 167.61943947 224.14554542 169.04452477 224.14612198 170.46960831 C224.14660934 172.40683673 224.14036332 174.34406345 224.13371277 176.28128052 C224.13203692 177.36786516 224.13036108 178.45444981 224.12863445 179.57396126 C224 182 224 182 223 183 C220.13005352 183.09793898 217.28416945 183.12992291 214.4138031 183.12025452 C213.5023165 183.12110894 212.5908299 183.12196337 211.65172249 183.12284368 C208.57305266 183.12450128 205.49443636 183.11897256 202.41577148 183.11352539 C200.2186076 183.11324355 198.02144362 183.11340118 195.82427979 183.1139679 C189.83898451 183.11425601 183.85370909 183.10835713 177.86841846 183.10139394 C171.6210253 183.09516261 165.37363174 183.09455678 159.12623596 183.09336853 C148.63371458 183.09060884 138.14119937 183.08435334 127.64868164 183.07543945 C116.83943722 183.06626601 106.03019479 183.05918485 95.22094727 183.05493164 C94.22219133 183.05453756 94.22219133 183.05453756 93.20325851 183.05413551 C89.86308126 183.05283051 86.52290401 183.05156904 83.18272674 183.05032361 C55.45514606 183.03985773 27.72757354 183.02225702 0 183 C-1.04158019 179.19711575 -1.1258357 175.76785476 -1.12698364 171.81283569 C-1.12854363 171.08804036 -1.13010362 170.36324502 -1.13171089 169.61648619 C-1.1357 167.18750007 -1.13253934 164.75857643 -1.12939453 162.32958984 C-1.13074947 160.58842431 -1.13252993 158.84725906 -1.13470459 157.10609436 C-1.13926717 152.37700178 -1.13749435 147.64793099 -1.1343255 142.91883802 C-1.13179666 137.97499501 -1.13414083 133.03115388 -1.13571167 128.08731079 C-1.13753149 119.7867194 -1.13513161 111.48613691 -1.13037109 103.18554688 C-1.12492525 93.5788503 -1.12669422 83.97217494 -1.1321975 74.36547887 C-1.1367297 66.12509363 -1.13737876 57.88471479 -1.13475883 49.64432871 C-1.13319711 44.71917474 -1.13299952 39.79403075 -1.13629532 34.86887741 C-1.13917569 30.2412739 -1.13719526 25.61369786 -1.13140106 20.98609734 C-1.13007452 19.28407398 -1.13046581 17.58204832 -1.13266373 15.88002586 C-1.13537925 13.56438463 -1.13198918 11.24883251 -1.12698364 8.93319702 C-1.12660662 7.63497702 -1.12622959 6.33675701 -1.12584114 4.99919701 C-1 2 -1 2 0 0 Z " fill="#8B51FE" transform="translate(137,120)"/>
<path d="M0 0 C10.50091458 -0.25576751 21.00107911 -0.4507667 31.50448322 -0.56993389 C36.38277623 -0.62715401 41.25892654 -0.70464973 46.13598633 -0.82983398 C50.85001072 -0.95006513 55.56198563 -1.01526866 60.27742577 -1.04364967 C62.06891317 -1.06385146 63.8602982 -1.10330491 65.6509037 -1.16303062 C81.1323766 -1.65850071 81.1323766 -1.65850071 87.03815746 3.80318737 C89.19225347 6.0830057 91.10968144 8.49926536 93 11 C94.24078995 12.42474024 95.48869925 13.84338532 96.75 15.25 C97.29011719 15.88035156 97.83023438 16.51070312 98.38671875 17.16015625 C102.06029218 21.34963103 105.98928255 25.23476251 110.3125 28.75 C113.28584782 31.23931445 114.88344029 32.74596944 115.24888897 36.67772102 C115.2483442 37.76505972 115.24779943 38.85239841 115.24723816 39.97268677 C115.25143265 41.2206604 115.25562714 42.46863403 115.25994873 43.75442505 C115.25446523 45.13983232 115.24878225 46.52523881 115.24291992 47.91064453 C115.24399268 49.36757492 115.24593127 50.8245049 115.24867249 52.28143311 C115.2535241 56.2399161 115.24586186 60.19828654 115.23571944 64.15675592 C115.22694686 68.29362012 115.22869621 72.4304807 115.2290802 76.56735229 C115.22814338 83.51285693 115.21945589 90.45831791 115.20581055 97.40380859 C115.19007248 105.44442948 115.18481285 113.48500257 115.1855461 121.52563775 C115.18615548 129.25009904 115.18105909 136.97454471 115.17275429 144.69900131 C115.16921541 147.9916585 115.16739018 151.28431015 115.16686058 154.57696915 C115.16585935 158.4494503 115.15978084 162.321891 115.14969444 166.19435883 C115.14676276 167.61943947 115.14554542 169.04452477 115.14612198 170.46960831 C115.14660934 172.40683673 115.14036332 174.34406345 115.13371277 176.28128052 C115.13203692 177.36786516 115.13036108 178.45444981 115.12863445 179.57396126 C115 182 115 182 114 183 C111.44410112 183.09506052 108.91532028 183.12556761 106.35913086 183.11352539 C105.15922264 183.11374443 105.15922264 183.11374443 103.93507385 183.1139679 C101.27830335 183.11326855 98.62160207 183.10547518 95.96484375 183.09765625 C94.12781309 183.09579215 92.29078194 183.09436821 90.45375061 183.09336853 C85.60890338 183.08954275 80.76408592 183.07971196 75.91925049 183.06866455 C70.97937422 183.05845172 66.03949315 183.05387119 61.09960938 183.04882812 C51.39972647 183.03808974 41.69986571 183.0210126 32 183 C32.00222061 181.78447952 32.00444122 180.56895905 32.00672913 179.31660461 C32.02736211 167.63128916 32.04215943 155.94597758 32.05181217 144.26064777 C32.05694212 138.2589623 32.06384958 132.25729198 32.07543945 126.25561523 C32.07965496 123.9301759 32.08380555 121.60473644 32.08789062 119.27929688 C32.09109644 117.55390859 32.09109644 117.55390859 32.09436703 115.79366398 C32.10225862 109.99483815 32.09565382 104.19655268 32.06166077 98.39781189 C32.05506408 97.25410157 32.04846739 96.11039125 32.0416708 94.93202305 C32.0284301 92.64408888 32.01472961 90.35615732 32.0005579 88.06822872 C31.97242385 81.46721217 32.05587829 74.87991787 32.23709106 68.28145027 C34.03165774 43.48099601 34.03165774 43.48099601 24.12109375 21.89453125 C21.38022911 19.29110514 18.47359773 17.05726208 15.4375 14.8125 C13.93853373 13.55286037 12.44951433 12.28128859 10.97070312 10.99804688 C8.31040187 8.70492759 5.61276806 6.50076305 2.82983398 4.35864258 C1.89598877 3.58029053 0.96214355 2.80193848 0 2 C0 1.34 0 0.68 0 0 Z " fill="#B1EAF5" transform="translate(246,120)"/>
<path d="M0 0 C14.09067508 -0.18712171 28.18115674 -0.32753875 42.27282047 -0.41449738 C48.81635208 -0.45623526 55.35904862 -0.5128413 61.90209961 -0.60351562 C68.21748996 -0.69048656 74.53207754 -0.73828466 80.84802055 -0.75901794 C83.2566536 -0.77379153 85.66524306 -0.80264193 88.07353401 -0.84584045 C91.44980652 -0.9039894 94.82276961 -0.91190998 98.19946289 -0.90820312 C99.19352646 -0.93696533 100.18759003 -0.96572754 101.21177673 -0.99536133 C105.26350934 -0.94728209 107.92496848 -0.89303531 111.11413574 1.75622559 C112.98292542 3.9041748 112.98292542 3.9041748 114.54828739 6.04351044 C116.63169328 8.85134021 119.26538925 10.57498009 122.1171875 12.5625 C131.14228116 19.41317458 140.1456807 26.83970183 142.25146484 38.50537109 C143.74825478 50.68584656 143.03996781 63.03512466 142.30712891 75.24902344 C142.00209202 80.4748525 141.9262428 85.66894965 141.96484375 90.90234375 C142.02865532 101.48660155 141.91660076 112.06522226 141.78125 122.6484375 C141.77132963 123.43628569 141.76140926 124.22413387 141.75118828 125.03585625 C141.66985622 131.48227058 141.58463853 137.92862647 141.5 144.375 C141.335 157.12125 141.17 169.8675 141 183 C94.47 183 47.94 183 0 183 C-0.99237451 179.03050194 -1.12580001 175.89084426 -1.12698364 171.81283569 C-1.12854363 171.08804036 -1.13010362 170.36324502 -1.13171089 169.61648619 C-1.1357 167.18750007 -1.13253934 164.75857643 -1.12939453 162.32958984 C-1.13074947 160.58842431 -1.13252993 158.84725906 -1.13470459 157.10609436 C-1.13926717 152.37700178 -1.13749435 147.64793099 -1.1343255 142.91883802 C-1.13179666 137.97499501 -1.13414083 133.03115388 -1.13571167 128.08731079 C-1.13753149 119.7867194 -1.13513161 111.48613691 -1.13037109 103.18554688 C-1.12492525 93.5788503 -1.12669422 83.97217494 -1.1321975 74.36547887 C-1.1367297 66.12509363 -1.13737876 57.88471479 -1.13475883 49.64432871 C-1.13319711 44.71917474 -1.13299952 39.79403075 -1.13629532 34.86887741 C-1.13917569 30.2412739 -1.13719526 25.61369786 -1.13140106 20.98609734 C-1.13007452 19.28407398 -1.13046581 17.58204832 -1.13266373 15.88002586 C-1.13537925 13.56438463 -1.13198918 11.24883251 -1.12698364 8.93319702 C-1.12660662 7.63497702 -1.12622959 6.33675701 -1.12584114 4.99919701 C-1 2 -1 2 0 0 Z M2 3 C2 61.41 2 119.82 2 180 C28.4 180 54.8 180 82 180 C83.31747011 178.907817 83.31747011 178.907817 83.12025452 176.22227478 C83.11803391 174.98095291 83.11581329 173.73963104 83.11352539 172.46069336 C83.11367142 171.77779739 83.11381744 171.09490143 83.1139679 170.39131165 C83.11326876 168.12412386 83.1054764 165.85701726 83.09765625 163.58984375 C83.09579207 162.02185613 83.09436817 160.45386793 83.09336853 158.88587952 C83.08954334 154.75123497 83.07971306 150.61662534 83.06866455 146.48199463 C83.05845044 142.26599602 83.05387091 138.04999178 83.04882812 133.83398438 C83.03809079 125.55597353 83.02101436 117.2779911 83 109 C81.78183594 108.97421875 80.56367188 108.9484375 79.30859375 108.921875 C77.68486165 108.86556059 76.06116511 108.80821403 74.4375 108.75 C73.63763672 108.73582031 72.83777344 108.72164063 72.01367188 108.70703125 C66.24075815 108.47140212 62.75610073 107.31835089 58 104 C53.58625943 98.68087675 53.37882162 93.84613067 53.62109375 87.03125 C54.12672129 82.98622966 55.11268162 80.88731838 58 78 C63.78278616 73.51539033 68.83040698 73.35494812 76 74 C77.67185051 74.30627564 79.3407306 74.63160625 81 75 C82.44957456 72.10085089 82.11932924 69.585717 82.11352539 66.34716797 C82.11370619 65.30602687 82.11370619 65.30602687 82.11389065 64.24385262 C82.11314324 61.99326517 82.10552284 59.74276016 82.09765625 57.4921875 C82.0961863 56.10424845 82.09516592 54.71630885 82.09460449 53.32836914 C82.08935779 48.17723765 82.07539663 43.02611802 82.0625 37.875 C82.0315625 20.611875 82.0315625 20.611875 82 3 C55.6 3 29.2 3 2 3 Z " fill="#6374F3" transform="translate(137,120)"/>
<path d="M0 0 C14.09067508 -0.18712171 28.18115674 -0.32753875 42.27282047 -0.41449738 C48.81635208 -0.45623526 55.35904862 -0.5128413 61.90209961 -0.60351562 C68.21748996 -0.69048656 74.53207754 -0.73828466 80.84802055 -0.75901794 C83.2566536 -0.77379153 85.66524306 -0.80264193 88.07353401 -0.84584045 C91.44980652 -0.9039894 94.82276961 -0.91190998 98.19946289 -0.90820312 C99.19352646 -0.93696533 100.18759003 -0.96572754 101.21177673 -0.99536133 C105.26350934 -0.94728209 107.92496848 -0.89303531 111.11413574 1.75622559 C112.98292542 3.9041748 112.98292542 3.9041748 114.54828739 6.04351044 C116.63169328 8.85134021 119.26538925 10.57498009 122.1171875 12.5625 C131.14228116 19.41317458 140.1456807 26.83970183 142.25146484 38.50537109 C143.74825478 50.68584656 143.03996781 63.03512466 142.30712891 75.24902344 C142.00209202 80.4748525 141.9262428 85.66894965 141.96484375 90.90234375 C142.02865532 101.48660155 141.91660076 112.06522226 141.78125 122.6484375 C141.77132963 123.43628569 141.76140926 124.22413387 141.75118828 125.03585625 C141.66985622 131.48227058 141.58463853 137.92862647 141.5 144.375 C141.335 157.12125 141.17 169.8675 141 183 C94.47 183 47.94 183 0 183 C-0.99237451 179.03050194 -1.12580001 175.89084426 -1.12698364 171.81283569 C-1.12854363 171.08804036 -1.13010362 170.36324502 -1.13171089 169.61648619 C-1.1357 167.18750007 -1.13253934 164.75857643 -1.12939453 162.32958984 C-1.13074947 160.58842431 -1.13252993 158.84725906 -1.13470459 157.10609436 C-1.13926717 152.37700178 -1.13749435 147.64793099 -1.1343255 142.91883802 C-1.13179666 137.97499501 -1.13414083 133.03115388 -1.13571167 128.08731079 C-1.13753149 119.7867194 -1.13513161 111.48613691 -1.13037109 103.18554688 C-1.12492525 93.5788503 -1.12669422 83.97217494 -1.1321975 74.36547887 C-1.1367297 66.12509363 -1.13737876 57.88471479 -1.13475883 49.64432871 C-1.13319711 44.71917474 -1.13299952 39.79403075 -1.13629532 34.86887741 C-1.13917569 30.2412739 -1.13719526 25.61369786 -1.13140106 20.98609734 C-1.13007452 19.28407398 -1.13046581 17.58204832 -1.13266373 15.88002586 C-1.13537925 13.56438463 -1.13198918 11.24883251 -1.12698364 8.93319702 C-1.12660662 7.63497702 -1.12622959 6.33675701 -1.12584114 4.99919701 C-1 2 -1 2 0 0 Z M84 2 C83.95357401 11.26672227 83.91807875 20.53340425 83.89637566 29.80021763 C83.88595708 34.1035887 83.87183317 38.40687994 83.84912109 42.71020508 C83.82732387 46.86639626 83.81541689 51.02251086 83.81024551 55.17875481 C83.80656208 56.76110984 83.79936933 58.34346089 83.78853989 59.92578316 C83.77393333 62.14926195 83.77202585 64.37242789 83.77294922 66.59594727 C83.768508 67.85947525 83.76406677 69.12300323 83.75949097 70.42481995 C84.07057133 75.04904668 85.09606054 79.14190223 87.125 83.3125 C88.6692121 88.05543716 89.10114919 93.43051466 87.10211182 98.09518433 C86.73873718 98.8048233 86.37536255 99.51446228 86.00097656 100.24560547 C82.91179275 107.6832615 83.50460652 115.48081148 83.609375 123.3828125 C83.6168491 125.0500317 83.6225365 126.71725978 83.62652588 128.38449097 C83.64169041 132.74117928 83.68089104 137.0973216 83.7253418 141.45379639 C83.77374862 146.69766967 83.79187235 151.94172704 83.81515503 157.1857605 C83.85374938 165.12421835 83.93046553 173.06148169 84 181 C102.48 181 120.96 181 140 181 C140.29123152 167.55880212 140.29123152 167.55880212 140.48828125 154.1171875 C140.54789313 148.62791374 140.61813118 143.14031966 140.75439453 137.65234375 C140.8636591 133.22363897 140.92296459 128.79673628 140.94877243 124.36678696 C140.96714387 122.68336503 141.00302263 121.00003359 141.05730057 119.31738663 C141.4903928 109.53829346 141.4903928 109.53829346 137.74237061 100.74359131 C135.27517404 98.28408636 132.74245783 96.13993886 130 94 C129.67 93.34 129.34 92.68 129 92 C128.34 92 127.68 92 127 92 C127.49371094 91.45730469 127.98742187 90.91460937 128.49609375 90.35546875 C129.13675781 89.64003906 129.77742188 88.92460937 130.4375 88.1875 C131.07558594 87.47980469 131.71367187 86.77210938 132.37109375 86.04296875 C134.19086012 84.00103848 134.19086012 84.00103848 135 81 C137 79.875 137 79.875 139 79 C140.19090955 78.02810605 140.19090955 78.02810605 140.12025452 76.24729919 C140.11803391 75.48562943 140.11581329 74.72395966 140.11352539 73.93920898 C140.11344986 73.07839218 140.11337433 72.21757538 140.11329651 71.33067322 C140.10555458 69.92755638 140.10555458 69.92755638 140.09765625 68.49609375 C140.09553383 67.06657127 140.09553383 67.06657127 140.09336853 65.60816956 C140.08775152 62.55124835 140.07519616 59.49439923 140.0625 56.4375 C140.05748719 54.37044376 140.05292391 52.30338638 140.04882812 50.23632812 C140.03862558 45.15750167 140.01905356 40.07883194 140 35 C129.11 35 118.22 35 107 35 C107.0625 19.0625 107.0625 19.0625 107.09008789 14.02758789 C107.09258545 12.73071045 107.09508301 11.43383301 107.09765625 10.09765625 C107.1053302 9.06892395 107.1053302 9.06892395 107.11315918 8.01940918 C107.11347054 6.34584769 107.06222837 4.6724042 107 3 C105.98363023 1.76078789 105.98363023 1.76078789 103.86694336 1.88647461 C102.49227905 1.89432983 102.49227905 1.89432983 101.08984375 1.90234375 C99.60581055 1.90717773 99.60581055 1.90717773 98.09179688 1.91210938 C96.53041992 1.92467773 96.53041992 1.92467773 94.9375 1.9375 C93.37032227 1.94426758 93.37032227 1.94426758 91.77148438 1.95117188 C89.1809334 1.96300087 86.59049441 1.97948311 84 2 Z M2 3 C2 61.41 2 119.82 2 180 C28.4 180 54.8 180 82 180 C83.31747011 178.907817 83.31747011 178.907817 83.12025452 176.22227478 C83.11803391 174.98095291 83.11581329 173.73963104 83.11352539 172.46069336 C83.11367142 171.77779739 83.11381744 171.09490143 83.1139679 170.39131165 C83.11326876 168.12412386 83.1054764 165.85701726 83.09765625 163.58984375 C83.09579207 162.02185613 83.09436817 160.45386793 83.09336853 158.88587952 C83.08954334 154.75123497 83.07971306 150.61662534 83.06866455 146.48199463 C83.05845044 142.26599602 83.05387091 138.04999178 83.04882812 133.83398438 C83.03809079 125.55597353 83.02101436 117.2779911 83 109 C81.78183594 108.97421875 80.56367188 108.9484375 79.30859375 108.921875 C77.68486165 108.86556059 76.06116511 108.80821403 74.4375 108.75 C73.63763672 108.73582031 72.83777344 108.72164063 72.01367188 108.70703125 C66.24075815 108.47140212 62.75610073 107.31835089 58 104 C53.58625943 98.68087675 53.37882162 93.84613067 53.62109375 87.03125 C54.12672129 82.98622966 55.11268162 80.88731838 58 78 C63.78278616 73.51539033 68.83040698 73.35494812 76 74 C77.67185051 74.30627564 79.3407306 74.63160625 81 75 C82.44957456 72.10085089 82.11932924 69.585717 82.11352539 66.34716797 C82.11370619 65.30602687 82.11370619 65.30602687 82.11389065 64.24385262 C82.11314324 61.99326517 82.10552284 59.74276016 82.09765625 57.4921875 C82.0961863 56.10424845 82.09516592 54.71630885 82.09460449 53.32836914 C82.08935779 48.17723765 82.07539663 43.02611802 82.0625 37.875 C82.0315625 20.611875 82.0315625 20.611875 82 3 C55.6 3 29.2 3 2 3 Z " fill="#4F349B" transform="translate(137,120)"/>
<path d="M0 0 C4.36775158 3.14884416 7.96773395 6.77820184 9.6875 11.9375 C10.42238402 18.82854359 9.85046991 23.35035617 5.6875 28.9375 C1.31767693 33.33014199 -2.37156914 35.08571552 -8.5625 35.25 C-13.81178016 35.17382311 -17.38662072 34.51667825 -21.3125 30.9375 C-25.57385667 26.52433927 -26.66699077 22.39330302 -26.875 16.3125 C-26.65717916 11.07874926 -26.0240847 7.8497109 -22.3125 3.9375 C-15.85564196 -1.88942067 -8.22732059 -2.63895189 0 0 Z " fill="#04010D" transform="translate(216.3125,194.0625)"/>
<path d="M0 0 C0.66 0 1.32 0 2 0 C2.66 1.32 3.32 2.64 4 4 C2.625 5.5 2.625 5.5 1 7 C0.34 7 -0.32 7 -1 7 C-0.67 7.99 -0.34 8.98 0 10 C0.51374941 14.53811977 0.36381304 16.44908311 -2.1875 20.3125 C-6.37213116 24.31114755 -9.14850418 25.08954463 -14.8125 25.125 C-16.20859103 25.09311538 -17.60461746 25.05472088 -19 25 C-18.67 25.99 -18.34 26.98 -18 28 C-14.92035913 28.98773847 -11.87933423 29.6948781 -8.72265625 30.37304688 C-4.23953591 31.42556727 -1.30987952 32.78344415 2 36 C3.40972001 39.34808502 3.1119931 40.68890805 1.875 44.125 C-0.29889662 47.45830815 -1.2708997 48.60158739 -5 50 C-12.1104434 50.89155714 -17.26270804 50.3945215 -23 46 C-25.15139518 43.10029345 -25.45708465 40.56526025 -25 37 C-23.5 35.1875 -23.5 35.1875 -22 34 C-22.33 33.505 -22.66 33.01 -23 32.5 C-24.44374945 28.89062637 -24.12340377 25.88721879 -24 22 C-23.91369606 19.1454901 -23.91369606 19.1454901 -24.359375 16.94921875 C-25.10886133 12.6096929 -25.30826197 10.60551458 -23.25 6.5625 C-19.7835359 2.61458256 -17.16986021 1.38295261 -12 1 C-9.64269611 1.50772699 -7.35564204 2.11173699 -5.05078125 2.8203125 C-4.37402344 2.87960937 -3.69726562 2.93890625 -3 3 C-1.33704878 1.60279195 -1.33704878 1.60279195 0 0 Z M-19 9 C-19.66300779 12.57577233 -19.65930485 15.75895557 -17.9375 19 C-14.86784865 20.58433618 -12.38318857 20.36248449 -9 20 C-6.32910785 18.39746471 -6.03268651 17.10023864 -5.0625 14.125 C-4.74034039 10.91245748 -4.74034039 10.91245748 -6.5625 8.125 C-8.85046256 5.75550397 -8.85046256 5.75550397 -12 5.5 C-15.38998695 6.06499783 -16.82200662 6.31939276 -19 9 Z M-18.8515625 36.328125 C-20.25857371 38.01479758 -20.25857371 38.01479758 -19.875 40.5625 C-19.15610832 43.3261611 -19.15610832 43.3261611 -16 45 C-11.35014733 46.23996071 -8.41069611 45.90461878 -4 44 C-3.34 43.34 -2.68 42.68 -2 42 C-2.0950739 39.9519572 -2.0950739 39.9519572 -3 38 C-6.19124144 35.87250571 -7.76071575 35.56444398 -11.5 35.1875 C-12.4590625 35.07792969 -13.418125 34.96835937 -14.40625 34.85546875 C-17.02737137 34.76877347 -17.02737137 34.76877347 -18.8515625 36.328125 Z " fill="#020102" transform="translate(374,338)"/>
<path d="M0 0 C1.5 1.375 1.5 1.375 3 3 C3 3.66 3 4.32 3 5 C2.01 5.804375 2.01 5.804375 1 6.625 C-1.47728816 9.56677969 -1.13490078 11.31451582 -0.96875 15.0390625 C-1.01843687 18.15691343 -1.95395496 19.68994915 -4 22 C-9.58620117 25.3517207 -13.70142981 25.18544518 -20 24 C-19.67 25.32 -19.34 26.64 -19 28 C-17.89140625 28.24234375 -16.7828125 28.4846875 -15.640625 28.734375 C-14.17690757 29.07215594 -12.71337531 29.41073998 -11.25 29.75 C-10.15558594 29.98589844 -10.15558594 29.98589844 -9.0390625 30.2265625 C-4.63101332 31.26846503 -1.84133176 32.23793289 1 36 C2.1283728 39.53556811 2.31524936 41.24690431 0.875 44.6875 C-1.94788992 48.16906424 -4.01664064 49.75170158 -8.55859375 50.3203125 C-13.18388917 50.50858775 -16.28492734 50.34476718 -20.5 48.3125 C-23.05172515 45.95215424 -24.6680569 44.21233336 -26 41 C-25.75007479 37.58435552 -24.65320781 34.97577406 -23 32 C-23.66 31.01 -24.32 30.02 -25 29 C-25.21314985 25.5896024 -25.084894 23.25468201 -24 20 C-24.37125 18.7625 -24.7425 17.525 -25.125 16.25 C-26.07536353 12.76319326 -25.97002724 11.89842566 -24.875 8.1875 C-22.16666667 3.58333333 -22.16666667 3.58333333 -19 2 C-14.83606215 0.95901554 -11.86244624 0.91077031 -7.8125 2.125 C-4.10775782 3.42055299 -4.10775782 3.42055299 -1.5 1.625 C-1.005 1.08875 -0.51 0.5525 0 0 Z M-18.375 7.625 C-20.4753727 10.69477548 -20.53293835 12.34556561 -20 16 C-19.09764165 18.48105194 -19.09764165 18.48105194 -17 20 C-13.0572344 20.57349318 -10.90639136 20.5664946 -7.5 18.4375 C-5.68040195 15.97118722 -5.68040195 15.97118722 -6.0625 12.4375 C-7.03258577 8.4291531 -7.03258577 8.4291531 -10 6 C-13.63031776 5.45931438 -15.32214079 5.53620159 -18.375 7.625 Z M-20 36.1875 C-21.22336939 38.02978871 -21.22336939 38.02978871 -20.875 40.5625 C-20.15610832 43.3261611 -20.15610832 43.3261611 -17 45 C-12.09345428 46.33814883 -8.77187704 45.62243819 -4 44 C-3.67 42.02 -3.34 40.04 -3 38 C-11.4187252 34.28495514 -11.4187252 34.28495514 -20 36.1875 Z " fill="#020202" transform="translate(187,338)"/>
<path d="M0 0 C4.3486545 0.50176783 6.86490499 3.13172159 10 6 C11.5 8 11.5 8 13 10 C13.99 10.33 14.98 10.66 16 11 C16 11.66 16 12.32 16 13 C16.66 13 17.32 13 18 13 C19.01866229 14.65532623 20.01810813 16.32260138 21 18 C21.66 18.33 22.32 18.66 23 19 C24.89133363 22.73794551 25.26200043 25.86831115 25.30297852 30.02441406 C25.31962051 31.21625305 25.33626251 32.40809204 25.35340881 33.63604736 C25.36182297 34.91630798 25.37023712 36.1965686 25.37890625 37.515625 C25.39510445 38.85456528 25.41228684 40.19349398 25.43040466 41.53240967 C25.47600001 45.05355411 25.51083147 48.57471496 25.54260254 52.0960083 C25.59452356 57.71669751 25.66028834 63.33721231 25.73081779 68.95769501 C25.75338189 70.90780693 25.76953609 72.85798969 25.78553772 74.8081665 C25.84751175 82.05970492 25.84751175 82.05970492 26.52294922 89.27026367 C27.4643828 96.68770627 27.00259681 104.26162484 26.87890625 111.72265625 C26.8545669 113.43614525 26.83072534 115.14964139 26.80735779 116.86314392 C26.74489603 121.34626472 26.67572457 125.82925718 26.60510254 130.31225586 C26.53407401 134.89756487 26.46946451 139.48296398 26.40429688 144.06835938 C26.27577407 153.04567489 26.13956088 162.02284929 26 171 C31.28 171 36.56 171 42 171 C42 171.33 42 171.66 42 172 C35.4 172 28.8 172 22 172 C22.00523682 169.05489502 22.01047363 166.10979004 22.01586914 163.07543945 C22.03274292 153.1371794 22.0436026 143.19891855 22.05181217 133.26064777 C22.05694212 127.2589623 22.06384958 121.25729198 22.07543945 115.25561523 C22.09878004 102.53354739 22.09043597 89.81254306 22.0232172 77.09060478 C21.99354872 70.44414958 22.02522912 63.8018007 22.11027431 57.15585423 C22.15428312 53.03019764 22.15576866 48.90522881 22.14768791 44.77937889 C22.15329669 42.87424394 22.17699461 40.96905649 22.22079659 39.06441689 C22.47674875 27.50762975 21.40295706 20.00770148 13.2815094 11.4030304 C9.68437957 8.04745261 5.99810189 5.07869604 1.91186523 2.32714844 C1.28094971 1.88918945 0.65003418 1.45123047 0 1 C0 0.67 0 0.34 0 0 Z " fill="#82B7C6" transform="translate(256,131)"/>
<path d="M0 0 C19.44444444 0 19.44444444 0 25 4 C28.45652426 7.7876399 28.45612245 10.63903049 28.28125 15.59375 C27.90487175 18.81387503 27.18811205 20.59307674 25 23 C19.35501322 27.30801623 12.75916547 26.20691323 6 26 C6 32.93 6 39.86 6 47 C4.02 47 2.04 47 0 47 C0 31.49 0 15.98 0 0 Z M6 5 C6 10.28 6 15.56 6 21 C14.07557784 21.71905153 14.07557784 21.71905153 21.3125 18.9375 C23.30095019 16.04074166 23.30095019 16.04074166 23 12.375 C21.88829549 8.49350932 21.88829549 8.49350932 19 6 C16.02394614 5.06797449 13.35860493 4.89178522 10.25 4.9375 C8.8475 4.958125 7.445 4.97875 6 5 Z " fill="#030203" transform="translate(93,326)"/>
<path d="M0 0 C9.9 0 19.8 0 30 0 C30 1.65 30 3.3 30 5 C22.08 5 14.16 5 6 5 C6 10.28 6 15.56 6 21 C12.93 21 19.86 21 27 21 C27 22.65 27 24.3 27 26 C20.07 26 13.14 26 6 26 C6 32.93 6 39.86 6 47 C4.02 47 2.04 47 0 47 C0 31.49 0 15.98 0 0 Z " fill="#050405" transform="translate(250,326)"/>
<path d="M0 0 C4.44016929 3.80585939 8.60442137 7.47661069 12.71484375 11.58203125 C13.21544815 12.08167892 13.71605255 12.5813266 14.23182678 13.09611511 C15.27402363 14.13763881 16.31498848 15.18039671 17.35473633 16.22436523 C18.95474662 17.82980515 20.5601231 19.42974308 22.16601562 21.02929688 C23.18261306 22.04655391 24.1989009 23.06412047 25.21484375 24.08203125 C26.13386475 25.00218018 27.05288574 25.9223291 27.99975586 26.87036133 C30 29 30 29 30 30 C20.1 30 10.2 30 0 30 C0 20.1 0 10.2 0 0 Z " fill="#6275F3" transform="translate(245,123)"/>
<path d="M0 0 C4.4543063 2.31281289 6.79286184 4.52849417 9 9 C9.34057617 11.86254883 9.34057617 11.86254883 9.29296875 14.95703125 C9.28330078 16.06884766 9.27363281 17.18066406 9.26367188 18.32617188 C9.23853516 19.47666016 9.21339844 20.62714844 9.1875 21.8125 C9.16719727 23.56723633 9.16719727 23.56723633 9.14648438 25.35742188 C9.11120278 28.238752 9.0619028 31.11913904 9 34 C7.68 34 6.36 34 5 34 C4.67 32.68 4.34 31.36 4 30 C3.34 30.639375 2.68 31.27875 2 31.9375 C-1.68347051 34.46988598 -4.54906643 35.24388677 -9 35 C-12.36232538 33.69242902 -14.45949455 32.54050545 -17 30 C-18.15637647 25.66358825 -18.23509439 22.93802345 -16 19 C-11.65676292 14.94631206 -7.50555616 14.87493961 -1.75 14.9375 C-0.67234375 14.94652344 0.4053125 14.95554687 1.515625 14.96484375 C2.33546875 14.97644531 3.1553125 14.98804688 4 15 C2.90213575 9.59212615 2.90213575 9.59212615 -1 6 C-5.18332216 5.63623286 -8.25600733 6.07451806 -12 8 C-12.33 8.66 -12.66 9.32 -13 10 C-13.99 9.34 -14.98 8.68 -16 8 C-14.60415208 4.62670085 -13.07634389 2.95767338 -10 1 C-6.38069302 -0.20643566 -3.80768995 -0.32268559 0 0 Z M-12 22 C-12.58345476 25.04253508 -12.58345476 25.04253508 -12 28 C-10.01607489 30.39851321 -10.01607489 30.39851321 -6.1875 30.4375 C-2.75266431 30.34382266 -2.01213174 30.00877615 0.9375 27.875 C3.16190154 24.77431907 3.73701637 22.7694321 4 19 C-4.69850225 18.19026122 -4.69850225 18.19026122 -12 22 Z " fill="#010102" transform="translate(144,339)"/>
<path d="M0 0 C10.63958519 -0.09259436 21.27907487 -0.16371125 31.9189806 -0.20724869 C36.85929893 -0.22814232 41.79934204 -0.2564923 46.73950195 -0.30175781 C51.5051768 -0.34515233 56.27058658 -0.36912372 61.03644371 -0.37950897 C62.85658633 -0.38691187 64.67671409 -0.40136772 66.49674416 -0.42292023 C69.04217747 -0.45186976 71.5865092 -0.45595963 74.13208008 -0.45410156 C75.26604218 -0.47567322 75.26604218 -0.47567322 76.4229126 -0.49768066 C78.52619934 -0.48101807 78.52619934 -0.48101807 82 0 C83.991745 2.02838135 83.991745 2.02838135 85 4 C84.01 4 83.02 4 82 4 C82 13.57 82 23.14 82 33 C96.355 32.505 96.355 32.505 111 32 C111 31.01 111 30.02 111 29 C114.53632312 32.79157459 115.49911433 35.04688777 115.48774719 40.2131958 C115.49469101 41.46391876 115.50163483 42.71464172 115.50878906 44.00326538 C115.4962289 45.3814122 115.48327633 46.75955549 115.4699707 48.13769531 C115.4704797 49.59492143 115.47273665 51.05214783 115.47660828 52.5093689 C115.48202255 56.45961194 115.46263252 60.40938511 115.43850732 64.3595438 C115.41720854 68.49104415 115.41780614 72.62254283 115.41581726 76.75408936 C115.40937264 83.68770436 115.38813218 90.62114274 115.35668945 97.5546875 C115.31633516 106.46530922 115.29899259 115.37581608 115.28938007 124.2865181 C115.28109163 131.93880177 115.26385376 139.59106094 115.24434257 147.24332333 C115.23826863 149.70824776 115.23312976 152.17317313 115.2279911 154.63809967 C115.21923177 158.50241263 115.20494609 162.36666817 115.1862812 166.23094559 C115.18014155 167.65279892 115.17570096 169.07466071 115.17303848 170.49652481 C115.16907827 172.42927797 115.15832864 174.36201376 115.14717102 176.29473877 C115.14289754 177.37872578 115.13862406 178.46271278 115.13422108 179.57954788 C115 182 115 182 114 183 C112.15881971 183.09381302 110.31402359 183.11743954 108.47045898 183.11352539 C107.28931015 183.11344986 106.10816132 183.11337433 104.89122009 183.11329651 C103.6058284 183.10813522 102.32043671 183.10297394 100.99609375 183.09765625 C99.0338662 183.09553383 99.0338662 183.09553383 97.03199768 183.09336853 C93.54837141 183.0895441 90.06478661 183.07971446 86.58117676 183.06866455 C83.02873292 183.05844882 79.47628241 183.05387056 75.92382812 183.04882812 C68.94920168 183.03809212 61.97460283 183.0210166 55 183 C71.37305479 172.08463014 94.32203714 181 114 181 C114 132.82 114 84.64 114 35 C103.44 35 92.88 35 82 35 C81.67 34.67 81.34 34.34 81 34 C81 23.11 81 12.22 81 1 C54.93 1 28.86 1 2 1 C1.67 1.66 1.34 2.32 1 3 C0.67 2.01 0.34 1.02 0 0 Z " fill="#A3C5CC" transform="translate(246,120)"/>
<path d="M0 0 C3.62081603 4.79225651 4.125 8.88363768 4.125 14.8125 C-3.465 14.8125 -11.055 14.8125 -18.875 14.8125 C-17.55426352 21.30928254 -17.55426352 21.30928254 -15.1875 23.75 C-11.93363791 25.24501772 -9.41521381 25.12859052 -5.875 24.8125 C-4.53409241 24.16120203 -3.19907669 23.49736725 -1.875 22.8125 C0.375 23.1875 0.375 23.1875 2.125 23.8125 C0.75516497 26.97365776 0.1359362 27.8052092 -2.875 29.8125 C-8.5051772 30.93853544 -12.44148722 31.0679204 -17.875 28.8125 C-21.90846688 25.5857265 -23.78674604 22.85804108 -24.875 17.8125 C-25.34967594 11.92651838 -24.85059858 7.00869453 -21.875 1.8125 C-19.49547177 -0.94994082 -16.91815714 -2.77572745 -13.5 -4.125 C-8.21624009 -4.25080381 -4.22654923 -3.21585268 0 0 Z M-16.875 2.8125 C-18.87025994 5.80538991 -18.875 7.04335596 -18.875 10.8125 C-13.265 10.8125 -7.655 10.8125 -1.875 10.8125 C-2.16153664 4.27727246 -2.16153664 4.27727246 -4.5625 1.875 C-8.81732455 -0.07991939 -13.03067297 0.06655212 -16.875 2.8125 Z " fill="#010102" transform="translate(406.875,343.1875)"/>
<path d="M0 0 C3.07572728 2.91799768 4.83738009 5.9308303 6 10 C6 12.31 6 14.62 6 17 C-1.59 17 -9.18 17 -17 17 C-15.67926352 23.49678254 -15.67926352 23.49678254 -13.3125 25.9375 C-10.05863791 27.43251772 -7.54021381 27.31609052 -4 27 C-2.65909241 26.34870203 -1.32407669 25.68486725 0 25 C2.25 25.375 2.25 25.375 4 26 C4 26.99 4 27.98 4 29 C0.22151303 31.97698973 -3.23396117 32.84113204 -8 33 C-12.52103073 32.1432226 -15.99257368 30.90410055 -19.4375 27.8125 C-23.13980534 21.14835039 -23.42842459 15.89687741 -21.8203125 8.55859375 C-20.54325415 4.57538794 -19.18420196 2.7596417 -16 0 C-10.45345091 -2.55994574 -5.56920137 -2.28812149 0 0 Z M-16 7 C-16.33 8.98 -16.66 10.96 -17 13 C-11.06 13 -5.12 13 1 13 C-0.30624852 6.48203637 -0.30624852 6.48203637 -2.75 4.0625 C-8.16802133 1.50398993 -12.03065226 2.69042246 -16 7 Z " fill="#010101" transform="translate(217,341)"/>
<path d="M0 0 C3.892492 3.53039972 6.1494259 7.26346736 7.03515625 12.48828125 C7.316808 18.7948312 5.32252728 23.50128349 1.3125 28.25 C-2.69516715 31.58972263 -5.50083277 32.666065 -10.6875 32.4375 C-15.86482708 31.6781587 -19.10943147 29.54709735 -22.3125 25.4375 C-25.45645886 19.9276858 -25.7812014 14.90374257 -24.2421875 8.8046875 C-22.35152421 3.99064567 -19.29999105 0.72668338 -15 -2.0625 C-9.58650359 -3.06966212 -4.96185003 -2.3404953 0 0 Z M-18.3125 7.4375 C-20.28355392 11.37960784 -19.76633884 16.14115901 -19.3125 20.4375 C-18.02706923 23.59320209 -16.43298487 25.87725756 -13.3125 27.4375 C-8.92249398 27.79733656 -6.38507836 27.97378918 -2.4375 26 C0.56429959 22.38018285 1.52313473 19.12191029 1.6875 14.4375 C0.97938516 10.19549132 -0.26728272 6.71498779 -3 3.375 C-9.76700561 0.63161935 -13.90058395 1.82233411 -18.3125 7.4375 Z " fill="#020202" transform="translate(310.3125,341.5625)"/>
<path d="M0 0 C0.66 0 1.32 0 2 0 C2.98730986 1.08380814 3.91692583 2.2203081 4.8203125 3.375 C7.91984384 7.0578024 11.22258805 9.74166182 15.1171875 12.5625 C24.13616954 19.43476556 33.14292431 26.82443192 35.25146484 38.50537109 C36.74153958 50.63120005 36.05270627 62.92847369 35.30908203 75.08740234 C34.76348523 84.38351005 34.9125419 93.69228599 35 103 C31 103 31 103 28.640625 101.1015625 C27.85171875 100.28429687 27.0628125 99.46703125 26.25 98.625 C25.45078125 97.81289062 24.6515625 97.00078125 23.828125 96.1640625 C22 94 22 94 22 92 C21.34 92 20.68 92 20 92 C21.3256246 89.12781337 22.80895135 86.83004857 24.875 84.4375 C25.36742187 83.85871094 25.85984375 83.27992188 26.3671875 82.68359375 C28 81 28 81 30.06396484 80.00097656 C33.27533344 76.6818874 32.60347544 72.74278357 32.609375 68.30078125 C32.62591125 67.35059616 32.64244751 66.40041107 32.65948486 65.4214325 C32.70808959 62.38505674 32.72936352 59.34918223 32.75 56.3125 C32.77814924 54.2545319 32.80807518 52.19658728 32.83984375 50.13867188 C32.91719969 45.09221456 32.95760305 40.04735716 33 35 C22.11 35 11.22 35 0 35 C0 23.45 0 11.9 0 0 Z M1 3 C1 12.9 1 22.8 1 33 C10.9 33 20.8 33 31 33 C27.19414061 28.55983071 23.52338931 24.39557863 19.41796875 20.28515625 C18.91832108 19.78455185 18.4186734 19.28394745 17.90388489 18.76817322 C16.86236119 17.72597637 15.81960329 16.68501152 14.77563477 15.64526367 C13.17019485 14.04525338 11.57025692 12.4398769 9.97070312 10.83398438 C8.95344609 9.81738694 7.93587953 8.8010991 6.91796875 7.78515625 C5.99781982 6.86613525 5.0776709 5.94711426 4.12963867 5.00024414 C2.36546624 2.88589729 2.36546624 2.88589729 1 3 Z " fill="#3354A1" transform="translate(244,120)"/>
<path d="M0 0 C0.33 0.99 0.66 1.98 1 3 C0.67 3.66 0.34 4.32 0 5 C-2.25946584 5.35557331 -4.4899777 5.44330506 -6.7734375 5.55859375 C-9.46702136 6.09258494 -10.34029384 6.84645489 -12 9 C-12.95168683 11.85506049 -13.1900946 13.90937282 -13.31640625 16.88671875 C-13.35830078 17.82451172 -13.40019531 18.76230469 -13.44335938 19.72851562 C-13.48267578 20.70498047 -13.52199219 21.68144531 -13.5625 22.6875 C-13.60568359 23.67556641 -13.64886719 24.66363281 -13.69335938 25.68164062 C-13.79941654 28.12095546 -13.90147714 30.56037113 -14 33 C-15.65 33 -17.3 33 -19 33 C-19 22.11 -19 11.22 -19 0 C-17.35 0 -15.7 0 -14 0 C-13.67 0.99 -13.34 1.98 -13 3 C-12.401875 2.525625 -11.80375 2.05125 -11.1875 1.5625 C-7.18365429 -1.29738979 -4.65398661 -0.93079732 0 0 Z " fill="#010101" transform="translate(344,340)"/>
<path d="M0 0 C0 3.4395991 -0.04584672 6.87792938 -0.09179688 10.31713867 C-0.10155045 11.05884811 -0.11130402 11.80055756 -0.12135315 12.56474304 C-0.15363167 15.01582079 -0.18618976 17.46689473 -0.21875 19.91796875 C-0.24118745 21.61761961 -0.26360747 23.31727069 -0.28601074 25.016922 C-0.34502019 29.49018583 -0.40426668 33.96344649 -0.46356201 38.43670654 C-0.5346591 43.80400103 -0.6054627 49.17129939 -0.67631531 54.53859711 C-0.78398498 62.69240107 -0.89202819 70.84620001 -1 79 C17.48 79 35.96 79 55 79 C55 79.33 55 79.66 55 80 C9.13 80 -36.74 80 -84 80 C-84 79.67 -84 79.34 -84 79 C-56.94 79 -29.88 79 -2 79 C-2 55.24 -2 31.48 -2 7 C-2.99 7.33 -3.98 7.66 -5 8 C-7.1875 7.0625 -7.1875 7.0625 -9 6 C-8.071875 5.566875 -7.14375 5.13375 -6.1875 4.6875 C-3.52815927 3.27961373 -1.91894095 2.23876444 0 0 Z " fill="#5947B3" transform="translate(222,222)"/>
<path d="M0 0 C1.08518111 0.91447846 2.16804738 1.83170407 3.25 2.75 C3.85328125 3.26046875 4.4565625 3.7709375 5.078125 4.296875 C5.71234375 4.85890625 6.3465625 5.4209375 7 6 C8.03540924 6.80996429 8.03540924 6.80996429 9.09173584 7.6362915 C11.67723226 10.83886691 11.53436095 13.5844395 11.45410156 17.52246094 C11.45468567 18.27406998 11.45526978 19.02567902 11.45587158 19.80006409 C11.45308998 22.27864135 11.42199617 24.75600845 11.390625 27.234375 C11.38316284 28.95501041 11.37746979 30.67565432 11.37347412 32.39630127 C11.35821575 36.92075139 11.31893242 41.44468628 11.2746582 45.96893311 C11.23370975 50.58729076 11.21546403 55.20573181 11.1953125 59.82421875 C11.15243818 68.88303863 11.08418454 77.94147644 11 87 C10.34 87 9.68 87 9 87 C8.99191315 86.03977936 8.98382629 85.07955872 8.97549438 84.09024048 C8.89811604 75.05503152 8.81039813 66.0199747 8.71247292 56.98496437 C8.66245931 52.33961619 8.61612991 47.69429131 8.578125 43.04882812 C8.54133592 38.56835616 8.49499376 34.08807684 8.44193649 29.60776901 C8.42335851 27.895729 8.40826322 26.18364764 8.39665604 24.47154617 C8.37985148 22.07929878 8.35083148 19.68749588 8.31884766 17.29541016 C8.31668747 16.58259384 8.31452728 15.86977753 8.31230164 15.13536072 C8.34886778 11.12114085 8.34886778 11.12114085 6 8 C3.93125966 7.3574765 3.93125966 7.3574765 2 7 C1.34 4.69 0.68 2.38 0 0 Z " fill="#5E7BDD" transform="translate(266,214)"/>
<path d="M0 0 C0.99 0.33 1.98 0.66 3 1 C3 3.97 3 6.94 3 10 C5.97 10 8.94 10 12 10 C12 11.32 12 12.64 12 14 C9.03 14 6.06 14 3 14 C3 16.97 3 19.94 3 23 C1.68 23.33 0.36 23.66 -1 24 C-1 20.7 -1 17.4 -1 14 C-4.3 14 -7.6 14 -11 14 C-11 12.68 -11 11.36 -11 10 C-7.7 10 -4.4 10 -1 10 C-1.020625 8.535625 -1.04125 7.07125 -1.0625 5.5625 C-1.08392007 4.04167482 -1.07179964 2.51928038 -1 1 C-0.67 0.67 -0.34 0.34 0 0 Z " fill="#7651C4" transform="translate(207,199)"/>
<path d="M0 0 C0.66 0.33 1.32 0.66 2 1 C2 1.99 2 2.98 2 4 C2.99 3.67 3.98 3.34 5 3 C5.06058594 4.03640625 5.12117188 5.0728125 5.18359375 6.140625 C5.26803371 7.51042873 5.35267997 8.88021975 5.4375 10.25 C5.47681641 10.93191406 5.51613281 11.61382812 5.55664062 12.31640625 C5.76666472 15.64448041 6.01934002 18.80255402 7 22 C3 22 3 22 0.640625 20.1015625 C-0.14828125 19.28429687 -0.9371875 18.46703125 -1.75 17.625 C-2.54921875 16.81289062 -3.3484375 16.00078125 -4.171875 15.1640625 C-6 13 -6 13 -6 11 C-6.66 11 -7.32 11 -8 11 C-6.63629701 8.00779732 -5.05091917 5.70973471 -2.875 3.25 C-2.33617187 2.63640625 -1.79734375 2.0228125 -1.2421875 1.390625 C-0.62730469 0.70226562 -0.62730469 0.70226562 0 0 Z " fill="#515777" transform="translate(272,201)"/>
<path d="M0 0 C3.33773111 2.90705613 4.37878941 4.65611357 5 9 C5.09106011 10.61379968 5.13772688 12.23057469 5.14526367 13.84692383 C5.15164352 14.78172073 5.15802338 15.71651764 5.16459656 16.67964172 C5.16570938 17.67868027 5.1668222 18.67771881 5.16796875 19.70703125 C5.17129715 20.74639328 5.17462555 21.78575531 5.17805481 22.85661316 C5.18311052 25.05292316 5.18546355 27.24924082 5.18530273 29.44555664 C5.18748532 32.79000648 5.20564493 36.13412426 5.22460938 39.47851562 C5.22754443 41.61718638 5.22952847 43.75585869 5.23046875 45.89453125 C5.23765427 46.8874971 5.24483978 47.88046295 5.25224304 48.90351868 C5.23361923 54.6193815 4.63471137 59.51681281 3 65 C2.67 65 2.34 65 2 65 C1.98969254 64.2446698 1.97938507 63.4893396 1.96876526 62.71112061 C1.87075053 55.58967618 1.76823047 48.46831756 1.66066074 41.34701157 C1.60551798 37.68596092 1.55211201 34.02490217 1.50268555 30.36376953 C1.45491418 26.82998084 1.40256713 23.29628673 1.34705925 19.76261139 C1.31678829 17.75965338 1.29124507 15.75662573 1.26576233 13.75360107 C1.24581711 12.53263733 1.22587189 11.31167358 1.20532227 10.05371094 C1.18977798 8.97893494 1.1742337 7.90415894 1.15821838 6.79681396 C1.02101505 4.37148144 0.69605145 2.31695943 0 0 Z " fill="#A0DBE6" transform="translate(279,151)"/>
<path d="M0 0 C4.23567424 0.5059002 6.35934285 2.8935328 9.3125 5.8125 C10.66794922 7.12154297 10.66794922 7.12154297 12.05078125 8.45703125 C14 11 14 11 14.09375 12.99609375 C12.52374782 15.87256204 10.5003331 17.93378061 8.1875 20.25 C6.87845703 21.58804688 6.87845703 21.58804688 5.54296875 22.953125 C3 25 3 25 -1 25 C-0.45015228 21.12488273 1.27555331 19.40423494 4.0625 16.75 C4.79597656 16.04359375 5.52945312 15.3371875 6.28515625 14.609375 C6.85105469 14.07828125 7.41695313 13.5471875 8 13 C7.06409496 11.8944811 6.12620142 10.79064547 5.1875 9.6875 C4.66542969 9.07261719 4.14335937 8.45773438 3.60546875 7.82421875 C2.12827531 6.14575321 0.59960869 4.56117966 -1 3 C-0.67 2.01 -0.34 1.02 0 0 Z " fill="#535E62" transform="translate(303,198)"/>
<path d="M0 0 C0.99 0 1.98 0 3 0 C3.36031121 6.53179546 2.00572019 12.46312634 0.5625 18.8125 C0.33240234 19.86115234 0.10230469 20.90980469 -0.13476562 21.99023438 C-1.84946646 29.69893293 -1.84946646 29.69893293 -3 32 C-3.99 32 -4.98 32 -6 32 C-6.32560667 25.04537545 -5.1060975 18.82796452 -3.5625 12.0625 C-3.33240234 11.00998047 -3.10230469 9.95746094 -2.86523438 8.87304688 C-1.14372664 1.14372664 -1.14372664 1.14372664 0 0 Z " fill="#546265" transform="translate(292,195)"/>
<path d="M0 0 C26.07 0 52.14 0 79 0 C79 0.33 79 0.66 79 1 C43.855 1.495 43.855 1.495 8 2 C8 4.64 8 7.28 8 10 C6.84481082 9.09515208 5.70114594 8.1755794 4.5625 7.25 C3.60537109 6.48429687 3.60537109 6.48429687 2.62890625 5.703125 C1 4 1 4 0 0 Z " fill="#B1E1EA" transform="translate(248,121)"/>
<path d="M0 0 C0 3.4395991 -0.04584672 6.87792938 -0.09179688 10.31713867 C-0.10155045 11.05884811 -0.11130402 11.80055756 -0.12135315 12.56474304 C-0.15363167 15.01582079 -0.18618976 17.46689473 -0.21875 19.91796875 C-0.24118745 21.61761961 -0.26360747 23.31727069 -0.28601074 25.016922 C-0.34502019 29.49018583 -0.40426668 33.96344649 -0.46356201 38.43670654 C-0.52402786 43.00142227 -0.58427024 47.56614094 -0.64453125 52.13085938 C-0.76280174 61.08724249 -0.88132257 70.04362227 -1 79 C-1.33 79 -1.66 79 -2 79 C-2 55.24 -2 31.48 -2 7 C-2.99 7.33 -3.98 7.66 -5 8 C-7.1875 7.0625 -7.1875 7.0625 -9 6 C-8.071875 5.566875 -7.14375 5.13375 -6.1875 4.6875 C-3.52815927 3.27961373 -1.91894095 2.23876444 0 0 Z " fill="#6046CE" transform="translate(222,222)"/>
<path d="M0 0 C1.134375 0.020625 2.26875 0.04125 3.4375 0.0625 C4.56103516 5.24804688 4.56103516 5.24804688 4.4375 8.0625 C1.93251158 11.0095452 0.48478323 11.96940816 -3.375 12.3125 C-4.096875 12.23 -4.81875 12.1475 -5.5625 12.0625 C-6.86782548 9.45184904 -6.34532536 8.3070219 -5.6875 5.5 C-5.50445312 4.69433594 -5.32140625 3.88867188 -5.1328125 3.05859375 C-4.14891537 -0.3850462 -3.87344745 0.06795522 0 0 Z " fill="#010103" transform="translate(215.5625,214.9375)"/>
<path d="M0 0 C3.14946812 2.94627663 4.76809248 4.82539181 5.23828125 9.234375 C5.42142084 15.4418431 4.55301081 18.89254696 1 24 C0.67 24 0.34 24 0 24 C0 19.71 0 15.42 0 11 C-0.66 10.67 -1.32 10.34 -2 10 C-1.34 10 -0.68 10 0 10 C0 6.7 0 3.4 0 0 Z " fill="#0E2E3B" transform="translate(221,199)"/>
<path d="M0 0 C0.33 0 0.66 0 1 0 C1.17100559 6.3636964 1.33030955 12.72761533 1.48217773 19.09179688 C1.53493908 21.24843699 1.59019968 23.40501768 1.64819336 25.56152344 C2.00147281 38.77110292 2.0046288 51.81935398 1 65 C0.67 65 0.34 65 0 65 C0 60.05 0 55.1 0 50 C-1.32 50.66 -2.64 51.32 -4 52 C-4.33 51.34 -4.66 50.68 -5 50 C-4.35256836 49.22060059 -3.70513672 48.44120117 -3.03808594 47.63818359 C-0.14892984 43.27738252 -0.39733604 38.87696488 -0.390625 33.7890625 C-0.37408875 32.82092621 -0.35755249 31.85278992 -0.34051514 30.85531616 C-0.29212655 27.77847898 -0.2706842 24.70213574 -0.25 21.625 C-0.22183272 19.53252736 -0.19190424 17.44007763 -0.16015625 15.34765625 C-0.08636978 10.23181151 -0.03673912 5.1162395 0 0 Z " fill="#2C4A73" transform="translate(277,154)"/>
<path d="M0 0 C0.33 0 0.66 0 1 0 C1.13526139 2.24834496 1.23210804 4.49902514 1.3125 6.75 C1.37050781 8.00296875 1.42851562 9.2559375 1.48828125 10.546875 C1 14 1 14 -1.33203125 16.390625 C-5.17244491 18.70724349 -8.02725324 19.15757974 -12.4375 19.1875 C-13.85869141 19.20876953 -13.85869141 19.20876953 -15.30859375 19.23046875 C-18.04501644 18.99614518 -19.66428123 18.39701383 -22 17 C-18.54067869 15.27033934 -14.31515788 16.04872539 -10.49804688 16.21484375 C-6.51613108 16.36875792 -6.51613108 16.36875792 -3.15234375 14.4921875 C-2.77207031 13.99976563 -2.39179688 13.50734375 -2 13 C-1.34 13 -0.68 13 0 13 C-0.66 10.69 -1.32 8.38 -2 6 C-4.91652174 5.83318891 -4.91652174 5.83318891 -8 6 C-8.66 6.66 -9.32 7.32 -10 8 C-10 6.35 -10 4.7 -10 3 C-9.04287109 2.92652344 -9.04287109 2.92652344 -8.06640625 2.8515625 C-7.24011719 2.77679688 -6.41382813 2.70203125 -5.5625 2.625 C-4.32693359 2.52058594 -4.32693359 2.52058594 -3.06640625 2.4140625 C-2.38449219 2.27742187 -1.70257813 2.14078125 -1 2 C-0.67 1.34 -0.34 0.68 0 0 Z " fill="#0A0322" transform="translate(220,210)"/>
<path d="M0 0 C0.33 0 0.66 0 1 0 C1 23.76 1 47.52 1 72 C1.66 72 2.32 72 3 72 C3 73.65 3 75.3 3 77 C1.02264404 75.94584656 1.02264404 75.94584656 -1 74 C-1.4430542 70.82991028 -1.4430542 70.82991028 -1.36230469 66.86645508 C-1.35313522 66.14425278 -1.34396576 65.42205048 -1.33451843 64.67796326 C-1.29944814 62.29106156 -1.2357829 59.90582063 -1.171875 57.51953125 C-1.14197711 55.86475154 -1.11386318 54.2099387 -1.08746338 52.55509949 C-1.01317961 48.19971128 -0.91464138 43.84519519 -0.81109619 39.49041748 C-0.70971174 35.04661841 -0.63120054 30.60242228 -0.55078125 26.15820312 C-0.3896102 17.43824927 -0.20282153 8.71908402 0 0 Z " fill="#7C53EB" transform="translate(219,122)"/>
<path d="M0 0 C0.99 0.33 1.98 0.66 3 1 C3 4.3 3 7.6 3 11 C4.98 11 6.96 11 9 11 C7 13 7 13 3.0859375 13.1953125 C1.51550649 13.18200376 -0.05486221 13.15813602 -1.625 13.125 C-2.42679688 13.11597656 -3.22859375 13.10695312 -4.0546875 13.09765625 C-6.03658523 13.07406223 -8.01832981 13.03819065 -10 13 C-10 12.34 -10 11.68 -10 11 C-7.03 11 -4.06 11 -1 11 C-1.01160156 10.28972656 -1.02320313 9.57945312 -1.03515625 8.84765625 C-1.04869141 7.46900391 -1.04869141 7.46900391 -1.0625 6.0625 C-1.07410156 5.14597656 -1.08570313 4.22945312 -1.09765625 3.28515625 C-1 1 -1 1 0 0 Z " fill="#8657F1" transform="translate(207,199)"/>
<path d="M0 0 C1.32 0 2.64 0 4 0 C5.68698082 0.61344757 7.35965807 1.27095914 9 2 C9 2.99 9 3.98 9 5 C7.68 4.67 6.36 4.34 5 4 C5.33 5.32 5.66 6.64 6 8 C5.01 8 4.02 8 3 8 C2.34 6.68 1.68 5.36 1 4 C0.01 4 -0.98 4 -2 4 C-1.690625 4.928125 -1.690625 4.928125 -1.375 5.875 C-1.25125 6.57625 -1.1275 7.2775 -1 8 C-1.66 8.66 -2.32 9.32 -3 10 C-4.231394 6.30581799 -3.64432764 3.7943739 -3 0 C-3.99 0.33 -4.98 0.66 -6 1 C-7.22969878 4.51190809 -7.22969878 4.51190809 -8 8 C-8.33 8 -8.66 8 -9 8 C-9.125 1.25 -9.125 1.25 -8 -1 C-4.30558125 -2.23147292 -3.48015214 -1.44298991 0 0 Z " fill="#B2DFE7" transform="translate(298,195)"/>
<path d="M0 0 C1.10865985 0.91122727 2.21172219 1.82926659 3.3125 2.75 C4.23482422 3.51570312 4.23482422 3.51570312 5.17578125 4.296875 C7 6 7 6 10 10 C0.1 10 -9.8 10 -20 10 C-20 9.67 -20 9.34 -20 9 C-19.19175781 8.93941406 -18.38351563 8.87882813 -17.55078125 8.81640625 C-15.94783203 8.69072266 -15.94783203 8.69072266 -14.3125 8.5625 C-13.25675781 8.48128906 -12.20101562 8.40007812 -11.11328125 8.31640625 C-8.05768324 8.06790768 -8.05768324 8.06790768 -5.34375 7.40625 C-1.91527562 6.81198111 0.75097306 7.91699102 4 9 C4 7.68 4 6.36 4 5 C3.01 4.67 2.02 4.34 1 4 C0.3125 1.9375 0.3125 1.9375 0 0 Z " fill="#6079E3" transform="translate(265,143)"/>
<path d="M0 0 C9.24 0 18.48 0 28 0 C28 11.88 28 23.76 28 36 C27.67 36 27.34 36 27 36 C27 25.11 27 14.22 27 3 C23.95236066 1.98412022 21.65281033 1.80195594 18.45703125 1.68359375 C17.38388672 1.64169922 16.31074219 1.59980469 15.20507812 1.55664062 C14.08552734 1.51732422 12.96597656 1.47800781 11.8125 1.4375 C10.68134766 1.39431641 9.55019531 1.35113281 8.38476562 1.30664062 C5.58996646 1.20050901 2.79507838 1.09845615 0 1 C0 0.67 0 0.34 0 0 Z " fill="#5E76E9" transform="translate(248,156)"/>
<path d="M0 0 C4.73083325 4.05499992 8.26704243 7.24896309 12 12 C8.73045798 11.43628586 7.17424117 10.50037734 5 8 C4.01 8.33 3.02 8.66 2 9 C1.67 13.29 1.34 17.58 1 22 C0.67 22 0.34 22 0 22 C0 14.74 0 7.48 0 0 Z " fill="#6078E9" transform="translate(245,123)"/>
<path d="M0 0 C0.66 0 1.32 0 2 0 C2 4.62 2 9.24 2 14 C-0.31 12.02 -2.62 10.04 -5 8 C-4.67 6.68 -4.34 5.36 -4 4 C-3.34 4 -2.68 4 -2 4 C-1.34 2.68 -0.68 1.36 0 0 Z " fill="#6474DB" transform="translate(275,204)"/>
<path d="M0 0 C0.33 0 0.66 0 1 0 C1.13277344 0.78246094 1.26554687 1.56492188 1.40234375 2.37109375 C1.57894531 3.38300781 1.75554687 4.39492187 1.9375 5.4375 C2.11152344 6.44683594 2.28554688 7.45617187 2.46484375 8.49609375 C2.74751097 10.9287438 2.74751097 10.9287438 4 12 C4.04063832 13.66617115 4.042721 15.33388095 4 17 C3.34 17 2.68 17 2 17 C2.02320313 17.91523438 2.04640625 18.83046875 2.0703125 19.7734375 C2.08835937 20.96195313 2.10640625 22.15046875 2.125 23.375 C2.14820313 24.55835938 2.17140625 25.74171875 2.1953125 26.9609375 C2 30 2 30 0 32 C0 21.44 0 10.88 0 0 Z " fill="#A6DDE9" transform="translate(282,210)"/>
<path d="M0 0 C3.3 0.33 6.6 0.66 10 1 C9.01 1.495 9.01 1.495 8 2 C8 4.64 8 7.28 8 10 C6.84481082 9.09515208 5.70114594 8.1755794 4.5625 7.25 C3.60537109 6.48429687 3.60537109 6.48429687 2.62890625 5.703125 C1 4 1 4 0 0 Z " fill="#A9DEE7" transform="translate(248,121)"/>
<path d="M0 0 C2.475 0.495 2.475 0.495 5 1 C4.51104248 1.37616455 4.02208496 1.7523291 3.51831055 2.13989258 C1.405461 4.72837959 1.6566293 6.45199055 1.70703125 9.76171875 C1.71669922 10.87998047 1.72636719 11.99824219 1.73632812 13.15039062 C1.76146484 14.31763672 1.78660156 15.48488281 1.8125 16.6875 C1.82603516 17.86634766 1.83957031 19.04519531 1.85351562 20.25976562 C1.88890674 23.17363411 1.93828191 26.08658945 2 29 C1.34 29 0.68 29 0 29 C0 19.43 0 9.86 0 0 Z " fill="#AEDEE6" transform="translate(328,124)"/>
<path d="M0 0 C0 3.57643579 -0.25362774 7.12176091 -0.5 10.6875 C-0.54769531 11.38939453 -0.59539062 12.09128906 -0.64453125 12.81445312 C-0.76212152 14.54303016 -0.88094135 16.27152348 -1 18 C-1.33 18 -1.66 18 -2 18 C-2 14.37 -2 10.74 -2 7 C-2.99 7.33 -3.98 7.66 -5 8 C-7.1875 7.0625 -7.1875 7.0625 -9 6 C-8.071875 5.566875 -7.14375 5.13375 -6.1875 4.6875 C-3.52815927 3.27961373 -1.91894095 2.23876444 0 0 Z " fill="#6950CF" transform="translate(222,222)"/>
<path d="M0 0 C2.77743622 2.53592003 3.85971294 4.43256193 4.203125 8.26953125 C4.30243619 13.65716352 3.9670454 17.30217811 1 22 C-0.04449911 18.86650268 0.06576355 18.01031744 1 15 C1.66 15 2.32 15 3 15 C3 12.69 3 10.38 3 8 C2.34 8 1.68 8 1 8 C0.67 5.36 0.34 2.72 0 0 Z " fill="#103C61" transform="translate(222,200)"/>
<path d="M0 0 C3.56943715 0.30595176 5.03014419 1.02424641 7.875 3.3125 C10 6 10 6 9.8125 8.3125 C9.544375 8.869375 9.27625 9.42625 9 10 C7.29115995 8.37660195 5.62553283 6.70680947 4 5 C4 4.34 4 3.68 4 3 C2.68 2.34 1.36 1.68 0 1 C0 0.67 0 0.34 0 0 Z " fill="#4D575E" transform="translate(269,214)"/>
<path d="M0 0 C0.47050781 0.42152344 0.94101563 0.84304687 1.42578125 1.27734375 C2.35970703 2.09912109 2.35970703 2.09912109 3.3125 2.9375 C4.23482422 3.75541016 4.23482422 3.75541016 5.17578125 4.58984375 C8.42588732 7.10223838 11.71537036 7.23538344 15.6875 7.5625 C16.68136719 7.64628906 17.67523438 7.73007813 18.69921875 7.81640625 C19.83810547 7.90728516 19.83810547 7.90728516 21 8 C21 8.33 21 8.66 21 9 C7.44736842 9.39473684 7.44736842 9.39473684 3 7 C0 3 0 3 0 0 Z " fill="#7B52CE" transform="translate(192,221)"/>
<path d="M0 0 C0.66 0.99 1.32 1.98 2 3 C1.67 3.99 1.34 4.98 1 6 C0.34 6 -0.32 6 -1 6 C-0.34650367 13.55038422 -0.34650367 13.55038422 1 21 C-2.18112186 17.57546776 -2.38107846 15.1000319 -2.3125 10.5 C-2.30863281 9.3759375 -2.30476562 8.251875 -2.30078125 7.09375 C-2.01644131 4.16911066 -1.52133407 2.47292551 0 0 Z " fill="#10052B" transform="translate(192,200)"/>
<path d="M0 0 C0.33 0 0.66 0 1 0 C1 1.98 1 3.96 1 6 C1.66 6 2.32 6 3 6 C3 8.31 3 10.62 3 13 C2.01 13.33 1.02 13.66 0 14 C0 9.38 0 4.76 0 0 Z " fill="#073B44" transform="translate(222,202)"/>
<path d="M0 0 C1.32 1.32 2.64 2.64 4 4 C3.01 4 2.02 4 1 4 C1 9.94 1 15.88 1 22 C0.67 22 0.34 22 0 22 C0 14.74 0 7.48 0 0 Z " fill="#5F7BDC" transform="translate(245,123)"/>
<path d="M0 0 C0.93065133 2.60582371 1.14917407 3.64198224 0.0625 6.25 C-0.4634375 7.11625 -0.4634375 7.11625 -1 8 C-2.32 8 -3.64 8 -5 8 C-4.45773019 4.20411134 -2.79872437 2.52788007 0 0 Z " fill="#58686E" transform="translate(307,215)"/>
<path d="M0 0 C1.1055189 0.93590504 2.20935453 1.87379858 3.3125 2.8125 C3.92738281 3.33457031 4.54226563 3.85664063 5.17578125 4.39453125 C6.85424679 5.87172469 8.43882034 7.40039131 10 9 C9.67 9.66 9.34 10.32 9 11 C8.5875 10.525625 8.175 10.05125 7.75 9.5625 C5.817815 7.83733482 4.51807725 7.43415125 2 7 C1.34 4.69 0.68 2.38 0 0 Z " fill="#6875E1" transform="translate(266,214)"/>
<path d="M0 0 C0.66 0 1.32 0 2 0 C2.05428973 2.22889496 2.09292338 4.45817471 2.125 6.6875 C2.14820313 7.92886719 2.17140625 9.17023438 2.1953125 10.44921875 C2.01032021 13.81237857 1.45767895 15.9985587 0 19 C-0.66 19 -1.32 19 -2 19 C-1.67257813 18.15179688 -1.34515625 17.30359375 -1.0078125 16.4296875 C0.05932828 12.79809989 0.20197218 9.89663699 0.125 6.125 C0.10695312 4.97257813 0.08890625 3.82015625 0.0703125 2.6328125 C0.04710937 1.76398438 0.02390625 0.89515625 0 0 Z " fill="#5776D4" transform="translate(225,203)"/>
<path d="M0 0 C0.66 0.33 1.32 0.66 2 1 C2.75 3.9375 2.75 3.9375 3 7 C1 9 1 9 -1.625 9.125 C-2.40875 9.08375 -3.1925 9.0425 -4 9 C-4 8.34 -4 7.68 -4 7 C-3.01 7 -2.02 7 -1 7 C-0.67 4.69 -0.34 2.38 0 0 Z " fill="#B1DFE6" transform="translate(290,220)"/>
<path d="M0 0 C1.32 0.66 2.64 1.32 4 2 C0.535 4.97 0.535 4.97 -3 8 C-3 6.35 -3 4.7 -3 3 C-2.01 3 -1.02 3 0 3 C0 2.01 0 1.02 0 0 Z " fill="#6772D3" transform="translate(268,201)"/>
<path d="M0 0 C0.99 0.33 1.98 0.66 3 1 C3 3.97 3 6.94 3 10 C2.67 10 2.34 10 2 10 C1.67 7.69 1.34 5.38 1 3 C0.67 5.31 0.34 7.62 0 10 C-0.33 10 -0.66 10 -1 10 C-1.02689216 8.52093108 -1.04634621 7.04172517 -1.0625 5.5625 C-1.07410156 4.73878906 -1.08570313 3.91507813 -1.09765625 3.06640625 C-1 1 -1 1 0 0 Z " fill="#724BC0" transform="translate(207,199)"/>
<path d="M0 0 C0.66 0 1.32 0 2 0 C1.67 1.98 1.34 3.96 1 6 C-0.32 6 -1.64 6 -3 6 C-3.66 6.66 -4.32 7.32 -5 8 C-4.67 6.68 -4.34 5.36 -4 4 C-3.34 4 -2.68 4 -2 4 C-1.34 2.68 -0.68 1.36 0 0 Z " fill="#6573CA" transform="translate(275,204)"/>
<path d="M0 0 C2.96175123 0.61277612 4.38058783 1.25372522 7 3 C7.6875 5.625 7.6875 5.625 8 8 C6.85073734 7.04578192 5.70569459 6.08647955 4.5625 5.125 C3.92441406 4.59132813 3.28632813 4.05765625 2.62890625 3.5078125 C1 2 1 2 0 0 Z " fill="#86BECE" transform="translate(248,123)"/>
<path d="M0 0 C3.4375 1.25 3.4375 1.25 7 3 C7.9375 5.1875 7.9375 5.1875 8 7 C7.401875 6.690625 6.80375 6.38125 6.1875 6.0625 C3.91043228 4.89790296 3.91043228 4.89790296 1 4 C0.3125 1.9375 0.3125 1.9375 0 0 Z " fill="#A1DCE7" transform="translate(255,127)"/>
<path d="M0 0 C0.33 0 0.66 0 1 0 C1.06058594 0.67546875 1.12117187 1.3509375 1.18359375 2.046875 C1.26738281 2.93890625 1.35117188 3.8309375 1.4375 4.75 C1.51871094 5.63171875 1.59992188 6.5134375 1.68359375 7.421875 C1.96238465 9.69350452 2.38790577 11.79851823 3 14 C2.01 13.67 1.02 13.34 0 13 C0 8.71 0 4.42 0 0 Z " fill="#6A46BC" transform="translate(189,207)"/>
</svg>
